<?xml version="1.0" encoding="UTF-8" standalone="no"?>
<svg
   version="1.1"
   id="Layer_1"
   x="0px"
   y="0px"
   viewBox="0 0 122.88 122.66"
   style="enable-background:new 0 0 122.88 122.66"
   xml:space="preserve"
   sodipodi:docname="businessman_inverse.svg"
   inkscape:export-filename="businessman_inverse.svg"
   inkscape:export-xdpi="96"
   inkscape:export-ydpi="96"
   inkscape:version="1.3.2 (091e20e, 2023-11-25, custom)"
   xmlns:inkscape="http://www.inkscape.org/namespaces/inkscape"
   xmlns:sodipodi="http://sodipodi.sourceforge.net/DTD/sodipodi-0.dtd"
   xmlns="http://www.w3.org/2000/svg"
   xmlns:svg="http://www.w3.org/2000/svg"><defs
     id="defs1" /><sodipodi:namedview
     id="namedview1"
     pagecolor="#505050"
     bordercolor="#eeeeee"
     borderopacity="1"
     inkscape:showpageshadow="0"
     inkscape:pageopacity="0"
     inkscape:pagecheckerboard="0"
     inkscape:deskcolor="#d1d1d1"
     inkscape:zoom="4.5368745"
     inkscape:cx="73.729173"
     inkscape:cy="65.353362"
     inkscape:window-width="1920"
     inkscape:window-height="1001"
     inkscape:window-x="-9"
     inkscape:window-y="-9"
     inkscape:window-maximized="1"
     inkscape:current-layer="Layer_1" /><style
     type="text/css"
     id="style1">.st0{fill-rule:evenodd;clip-rule:evenodd;}</style><rect
     style="fill:#1f1f1f;stroke:none;stroke-width:9.239;stroke-linecap:round;stroke-linejoin:round;paint-order:fill markers stroke;fill-opacity:1"
     id="rect1"
     width="122.88"
     height="122.66"
     x="0"
     y="0" /><g
     id="g1"
     inkscape:export-filename=".\businessman_inverse.svg"
     inkscape:export-xdpi="96"
     inkscape:export-ydpi="96"
     transform="matrix(0.92466861,0,0,0.88499619,4.6287373,7.0542029)"><path
       class="st0"
       d="m 43.84,78.55 9.74,28.64 4.9,-17 -2.4,-2.63 C 55,85.98 54.76,84.6 55.36,83.41 c 1.3,-2.57 3.99,-2.09 6.5,-2.09 2.63,0 5.89,-0.5 6.71,2.8 0.28,1.1 -0.07,2.26 -0.84,3.44 l -2.4,2.63 4.9,17 8.82,-28.64 c 6.36,5.72 25.19,6.87 32.2,10.78 2.22,1.24 4.22,2.81 5.83,4.93 2.44,3.23 3.94,7.44 4.35,12.79 l 1.46,9.33 c -0.36,3.78 -2.5,5.96 -6.73,6.29 H 61.9 6.73 C 2.5,122.35 0.36,120.17 0,116.38 l 1.46,-9.33 c 0.41,-5.35 1.91,-9.56 4.35,-12.79 1.61,-2.13 3.61,-3.7 5.83,-4.93 7.01,-3.91 25.84,-5.06 32.2,-10.78 z M 39.43,37.56 c -1.21,0.05 -2.12,0.3 -2.74,0.72 -0.36,0.24 -0.62,0.55 -0.79,0.91 -0.19,0.4 -0.27,0.89 -0.26,1.46 0.05,1.66 0.92,3.82 2.59,6.31 L 38.25,47 v 0 l 5.44,8.66 c 2.18,3.47 4.47,7.01 7.31,9.61 2.73,2.5 6.05,4.19 10.44,4.2 4.75,0.01 8.23,-1.75 11.04,-4.39 2.93,-2.75 5.25,-6.51 7.53,-10.27 l 6.13,-10.1 c 1.14,-2.61 1.56,-4.35 1.3,-5.38 -0.16,-0.61 -0.83,-0.91 -1.97,-0.96 -0.24,-0.01 -0.49,-0.01 -0.75,-0.01 -0.27,0.01 -0.56,0.03 -0.86,0.05 -0.16,0.01 -0.32,0 -0.47,-0.03 -0.55,0.03 -1.11,-0.01 -1.68,-0.09 L 83.81,29 C 72.6,28.86 64.93,26.91 55.86,21.11 52.88,19.21 51.98,17.03 49,17.24 c -2.25,0.43 -4.14,1.44 -5.65,3.06 -1.44,1.55 -2.53,3.67 -3.24,6.38 l 1.19,10.95 c -0.66,0.04 -1.29,0.02 -1.87,-0.07 z m 48.14,-1.95 c 1.51,0.46 2.48,1.42 2.87,2.97 0.44,1.72 -0.04,4.13 -1.49,7.43 v 0 c -0.03,0.06 -0.06,0.12 -0.09,0.18 l -6.2,10.22 c -2.39,3.94 -4.82,7.88 -8.06,10.92 -3.35,3.14 -7.49,5.23 -13.14,5.22 C 56.18,72.54 52.21,70.52 48.95,67.54 45.8,64.66 43.39,60.94 41.1,57.3 l -5.44,-8.65 c -1.99,-2.97 -3.02,-5.68 -3.09,-7.91 -0.03,-1.05 0.15,-2 0.53,-2.83 0.41,-0.88 1.03,-1.61 1.87,-2.17 0.39,-0.26 0.83,-0.49 1.32,-0.67 -0.35,-4.69 -0.49,-10.61 -0.26,-15.56 0.12,-1.17 0.34,-2.35 0.67,-3.53 1.39,-4.97 4.88,-8.97 9.2,-11.72 1.52,-0.97 3.19,-1.77 4.95,-2.41 10.45,-3.8 24.31,-1.73 31.73,6.29 3.02,3.27 4.92,7.61 5.33,13.34 l -0.34,14.13 z"
       id="path1"
       style="fill:#a9a9a9;fill-opacity:1"
       inkscape:export-filename=".\path1.svg"
       inkscape:export-xdpi="96"
       inkscape:export-ydpi="96" /></g></svg>
